<svg xmlns="http://www.w3.org/2000/svg" width="500" height="148.14" viewBox="0 0 500 148.14" aria-labelledby="gandi-net-logo-title">
  <title id="gandi-net-logo-title">Gandi.net</title>
  <path d="M157.65 45.101a23.358 23.358 0 0 0-5.88-.944c-11.517 0-19.51 6.469-19.51 22.099 0 7.515 1.768 13.984 7.17 17.508-3.401 2.823-7.28 7.637-7.403 10.694s2.59 5.169 7.048 6.459c-4.935 3.29-8.805 7.992-8.805 13.639 0 6.093 3.047 13.395 18.91 13.395 15.63 0 22.454-9.14 22.454-19.296 0-9.283-7.058-12.695-14.573-13.751-8.815-1.179-14.807-1.524-14.807-3.524 0-1.646 1.524-3.646 3.047-5.292a23.653 23.653 0 0 0 5.281.478c13.639 0 19.042-8.125 19.042-20.565 0-5.88-1.767-10.35-4.58-13.284a20.931 20.931 0 0 0 4.346.589c2.032 0 3.29-1.178 3.29-3.758a9.252 9.252 0 0 0-.944-4.468zm-11.283 57.116a13.598 13.598 0 0 0 2.234.234c10.338.7 13.395 2.234 13.395 7.525 0 4.062-3.646 9.039-11.994 9.039-7.982 0-9.871-2.935-9.871-6.693 0-3.758 2.823-7.637 6.236-10.105zm4.702-22.921c-7.292 0-8.703-5.281-8.703-13.741 0-10.349 4.001-14.34 9.048-14.34 5.647 0 8.582 3.646 8.582 12.187 0 10.267-2.701 15.894-8.927 15.894zm52.15-35.139c-10.939 0-18.809 1.533-20.576 2.823a3.626 3.626 0 0 0-1.015 3.047c0 .823.121 4.062 1.3 6.093 3.635-1.645 11.272-2.701 16.563-2.701 3.646 0 6.236 1.412 6.236 6.926v9.871c-2.356-1.167-6.002-1.523-8.937-1.523-7.515 0-15.234 2.935-15.234 19.296 0 17.854 8.226 18.565 16.798 18.443 7.647 0 13.202-1.879 16.34-3.88 0 0 .71-16.685.71-37.25v-6.805c-.08-10.572-4.549-14.34-12.186-14.34zm2.112 52.413c-1.016 1.178-4.002 1.889-6.348 1.889-4.58 0-7.525-.477-7.525-10.582 0-10.338 4.001-11.984 8.703-11.984a12.877 12.877 0 0 1 5.525 1.016c0 8.5-.356 19.66-.356 19.66zm58.964-30.782c0-16.249-1.534-21.632-15.751-21.632-6.348 0-14.807 1.767-19.387 3.88v56.647c9.749 0 9.515 0 9.515-2.03V54.736a17.569 17.569 0 0 1 8.816-2.234c6.225 0 6.936 3.524 6.936 12.806v39.374c9.983 0 9.871 0 9.871-2.031zm38.866-43.131v23.856a14.086 14.086 0 0 0-8.348-2.356c-10.105 0-18.097 9.993-18.097 33.26 0 25.5 7.992 29.025 19.154 29.025 7.291 0 12.816-1.178 16.808-3.524V18.31c-7.76 0-9.516 0-9.516 4.347zm0 73.446a12.187 12.187 0 0 1-6.937 1.767c-5.524 0-8.805-2.59-8.805-21.51 0-19.296 5.17-23.856 10.338-23.856 2.458 0 3.88.356 5.403 1.523zm24.77-45.792v54.414c9.637 0 9.749 0 9.749-2.031v-56.77c-7.759 0-9.75 0-9.75 4.387zm5.28-31.615c-3.757 0-5.402 2.823-5.402 7.109-.122 5.525 1.767 7.282 4.813 7.403 3.524 0 5.292-2.823 5.413-7.637s-1.188-6.916-4.824-6.916zm24.963 73.527c-4.224 0-6.58 3.179-6.58 6.814 0 4.114 1.645 6.703 6.58 6.703a6.388 6.388 0 0 0 6.581-6.703c.041-4.113-1.716-6.814-6.58-6.814zm39.456-48.067c-6.338 0-14.797 1.767-19.387 3.88v56.648c9.76 0 9.526 0 9.526-2.032V54.737a17.529 17.529 0 0 1 8.805-2.234c6.235 0 6.936 3.524 6.936 12.806v39.374c9.983 0 9.871 0 9.871-2.031V65.787c.04-16.219-1.493-21.632-15.71-21.632zm63.788 19.296c0-12.573-5.078-19.296-14.93-19.296-10.46 0-20.798 3.646-20.798 34.204 0 23.967 7.87 28.08 18.808 28.08 8.805 0 16.249-2.823 16.249-4.458a36.215 36.215 0 0 0-.823-8.47 28.751 28.751 0 0 1-14.33 3.646c-6.347 0-9.638-2.113-9.993-16.33 5.636 0 16.452-.234 24.567-1.88a79.367 79.367 0 0 0 1.29-15.517zm-9.81 8.328c-4.114 1.168-11.406 1.401-15.986 1.29.7-16.33 5.078-20.566 9.871-20.566 5.078 0 6.581 3.524 6.693 11.984a37.667 37.667 0 0 1-.579 7.292zm40.622 26.557c-4.225 0-4.225-4.235-4.225-9.283V54.15h10.105c1.89 0 1.89-.822 1.89-8.226h-12.015V24.77c-7.759 0-9.516 0-9.516 3.29v17.865h-5.991c-2.032 0-2.113.944-2.113 8.226h8.125V88c0 10.572 0 18.565 11.17 18.565 4.581 0 10.106-.945 10.106-3.768a27.512 27.512 0 0 0-.7-6.225c-2.5 1.056-3.566 1.767-6.836 1.767z"/>
  <path d="M89.73 47.478a9.201 9.201 0 0 0-2.224-12.979 9.526 9.526 0 0 0-12.97 2.214c-4.437 6.012-9.14 10.156-14.562 12.664a42.573 42.573 0 0 1-14.594 3.158 37.474 37.474 0 0 1-13.923-3.158c-5.667-2.539-10.45-6.652-14.512-12.664A9.327 9.327 0 1 0 1.71 47.478c9.14 13.294 25.328 19.936 27.227 20.565-7.282 5.382-15.234 12.664-18.676 22.475a45.386 45.386 0 0 0 0 31.655 41.496 41.496 0 0 0 19.936 22.16c10.156 5.078 22.789 5.078 34.184 0 12.034-5.383 19.63-15.234 20.89-26.273 1.27-11.71-4.428-22.16-14.218-26.588-10.156-4.438-21.53-1.27-29.451 8.226a9.246 9.246 0 1 0 14.563 11.395c2.214-2.844 4.743-3.798 7.282-2.844 1.899.945 3.798 3.474 3.483 7.912-.315 4.438-4.123 8.54-10.156 11.395-6.327 2.843-13.294 2.843-18.036.315a23.521 23.521 0 0 1-11.08-12.35 25.643 25.643 0 0 1 0-18.35c2.214-6.013 7.596-11.395 17.407-17.407 4.062-2.54 8.551-5.078 12.664-7.282-.284.315 22.505-12.014 32-25.003zM45.096 0a21.52 21.52 0 1 0 21.52 21.52A21.54 21.54 0 0 0 45.096 0zm0 27.847a6.327 6.327 0 1 1 6.378-6.327 6.337 6.337 0 0 1-6.378 6.327z"/>
</svg>
