<?xml version="1.0" encoding="utf-8"?>
<!-- Generator: Adobe Illustrator 22.1.0, SVG Export Plug-In . SVG Version: 6.00 Build 0)  -->
<svg version="1.1" id="Layer_1" xmlns="http://www.w3.org/2000/svg" xmlns:xlink="http://www.w3.org/1999/xlink" x="0px" y="0px"
	 viewBox="0 0 59.3 21" style="enable-background:new 0 0 59.3 21;" xml:space="preserve">
<style type="text/css">
	.st0{clip-path:url(#SVGID_2_);fill:#010101;}
	.st1{clip-path:url(#SVGID_2_);}
	.st2{fill:#030303;}
</style>
<g>
	<defs>
		<rect id="SVGID_1_" y="0" width="113.2" height="21"/>
	</defs>
	<clipPath id="SVGID_2_">
		<use xlink:href="#SVGID_1_"  style="overflow:visible;"/>
	</clipPath>
	<path class="st0" d="M12.5,7.7c0.3-0.4,0.2-1-0.2-1.3c-0.4-0.3-1-0.2-1.3,0.2c-0.5,0.6-0.9,1-1.5,1.3C9,8.1,8.5,8.2,8,8.2
		c-0.5,0-1-0.1-1.4-0.3C6,7.7,5.5,7.2,5.1,6.6C4.8,6.2,4.2,6.1,3.8,6.4C3.4,6.7,3.3,7.3,3.5,7.7c0.9,1.4,2.6,2,2.8,2.1
		c-0.7,0.5-1.5,1.3-1.9,2.3c-0.4,1.1-0.4,2.2,0,3.2s1.1,1.8,2,2.3c1,0.5,2.3,0.5,3.5,0c1.2-0.5,2-1.6,2.1-2.7
		c0.1-1.2-0.5-2.3-1.4-2.7c-1-0.5-2.2-0.1-3,0.8c-0.3,0.4-0.3,1,0.2,1.3c0.4,0.3,1,0.3,1.3-0.2c0.2-0.3,0.5-0.4,0.7-0.3
		c0.2,0.1,0.4,0.4,0.4,0.8c0,0.5-0.4,0.9-1,1.2c-0.6,0.3-1.4,0.3-1.8,0c-0.5-0.3-0.9-0.7-1.1-1.3c-0.2-0.4-0.3-1.1,0-1.9
		C6.4,12.2,7,11.6,8,11c0.4-0.3,0.9-0.5,1.3-0.7C9.2,10.3,11.5,9,12.5,7.7z M8,2.9c-1.2,0-2.2,1-2.2,2.2c0,1.2,1,2.2,2.2,2.2
		c1.2,0,2.2-1,2.2-2.2C10.1,3.9,9.2,2.9,8,2.9z M8,5.7c-0.4,0-0.6-0.3-0.6-0.6S7.6,4.4,8,4.4c0.4,0,0.6,0.3,0.6,0.6
		C8.6,5.4,8.3,5.7,8,5.7z"/>
	<g class="st1">
		<g>
			<path class="st2" d="M19.1,7.3c-0.2-0.1-0.4-0.1-0.6-0.1c-1.2,0-2,0.7-2,2.4c0,0.8,0.2,1.5,0.7,1.9c-0.3,0.3-0.7,0.8-0.8,1.1
				c0,0.3,0.3,0.6,0.7,0.7c-0.5,0.4-0.9,0.9-0.9,1.5c0,0.7,0.3,1.4,1.9,1.4c1.6,0,2.3-1,2.3-2.1c0-1-0.7-1.4-1.5-1.5
				c-0.9-0.1-1.5-0.2-1.5-0.4c0-0.2,0.2-0.4,0.3-0.6c0.2,0,0.3,0.1,0.5,0.1c1.4,0,1.9-0.9,1.9-2.2c0-0.6-0.2-1.1-0.5-1.4
				c0.2,0,0.3,0.1,0.4,0.1c0.2,0,0.3-0.1,0.3-0.4c0-0.2,0-0.4-0.1-0.5H19.1z M18,13.4c0.1,0,0.1,0,0.2,0c1,0.1,1.4,0.2,1.4,0.8
				c0,0.4-0.4,1-1.2,1c-0.8,0-1-0.3-1-0.7C17.4,14.1,17.7,13.6,18,13.4z M18.5,10.9c-0.7,0-0.9-0.6-0.9-1.5c0-1.1,0.4-1.5,0.9-1.5
				c0.6,0,0.9,0.4,0.9,1.3C19.4,10.3,19.1,10.9,18.5,10.9z M23.8,7.2c-1.1,0-1.9,0.2-2.1,0.3c-0.1,0.1-0.1,0.2-0.1,0.3
				c0,0.1,0,0.4,0.1,0.7c0.4-0.2,1.1-0.3,1.7-0.3c0.4,0,0.6,0.2,0.6,0.7V10c-0.2-0.1-0.6-0.2-0.9-0.2c-0.8,0-1.5,0.3-1.5,2.1
				c0,1.9,0.8,2,1.7,2c0.8,0,1.3-0.2,1.7-0.4c0,0,0.1-1.8,0.1-4V8.7C25,7.6,24.5,7.2,23.8,7.2z M24,12.8c-0.1,0.1-0.4,0.2-0.6,0.2
				c-0.5,0-0.8-0.1-0.8-1.1c0-1.1,0.4-1.3,0.9-1.3c0.2,0,0.4,0,0.6,0.1C24,11.6,24,12.8,24,12.8z M28.4,7.2c-0.6,0-1.5,0.2-2,0.4
				v6.1c1,0,1,0,1-0.2V8.3c0.3-0.2,0.6-0.2,0.9-0.2c0.6,0,0.7,0.4,0.7,1.4v4.2c1,0,1,0,1-0.2V9.5C30,7.8,29.8,7.2,28.4,7.2z
				 M33.9,4.9v2.5c-0.2-0.2-0.5-0.3-0.8-0.3c-1,0-1.8,1.1-1.8,3.6c0,2.7,0.8,3.1,1.9,3.1c0.7,0,1.3-0.1,1.7-0.4v-9
				C34.1,4.4,33.9,4.4,33.9,4.9z M33.9,12.7c-0.2,0.1-0.4,0.2-0.7,0.2c-0.6,0-0.9-0.3-0.9-2.3c0-2.1,0.5-2.6,1-2.6
				c0.2,0,0.4,0,0.5,0.2V12.7z M36.4,7.8v5.8c1,0,1,0,1-0.2V7.4C36.6,7.4,36.4,7.4,36.4,7.8z M36.9,4.5c-0.4,0-0.5,0.3-0.5,0.8
				c0,0.6,0.2,0.8,0.5,0.8c0.4,0,0.5-0.3,0.5-0.8C37.4,4.7,37.3,4.5,36.9,4.5z M39.5,12.3c-0.4,0-0.7,0.3-0.7,0.7
				c0,0.4,0.2,0.7,0.7,0.7c0.4,0,0.7-0.3,0.7-0.7C40.1,12.6,40,12.3,39.5,12.3z M43.5,7.2c-0.6,0-1.5,0.2-2,0.4v6.1c1,0,1,0,1-0.2
				V8.3c0.3-0.2,0.6-0.2,0.9-0.2c0.6,0,0.7,0.4,0.7,1.4v4.2c1,0,1,0,1-0.2V9.5C45.1,7.8,44.9,7.2,43.5,7.2z M49.9,9.2
				c0-1.3-0.5-2.1-1.5-2.1c-1.1,0-2.1,0.4-2.1,3.7c0,2.6,0.8,3,1.9,3c0.9,0,1.6-0.3,1.6-0.5c0-0.3,0-0.7-0.1-0.9
				c-0.4,0.2-0.9,0.4-1.5,0.4c-0.6,0-1-0.2-1-1.7c0.6,0,1.7,0,2.5-0.2C49.9,10.4,49.9,9.8,49.9,9.2z M48.9,10.1
				c-0.4,0.1-1.2,0.2-1.6,0.1c0.1-1.7,0.5-2.2,1-2.2c0.5,0,0.7,0.4,0.7,1.3C49,9.6,49,9.9,48.9,10.1z M53.1,13c-0.4,0-0.4-0.5-0.4-1
				V8.2h1c0.2,0,0.2-0.1,0.2-0.9h-1.2V5.1c-0.8,0-1,0-1,0.4v1.9h-0.6c-0.2,0-0.2,0.1-0.2,0.9h0.8v3.6c0,1.1,0,2,1.1,2
				c0.5,0,1-0.1,1-0.4c0-0.3,0-0.5-0.1-0.7C53.5,12.9,53.4,13,53.1,13z"/>
		</g>
	</g>
</g>
</svg>
